<?xml version="1.0" encoding="UTF-8" standalone="no"?>
<!-- Created with Inkscape (http://www.inkscape.org/) -->

<svg
   version="1.1"
   id="svg4684"
   width="317.87439"
   height="190.85393"
   xmlns:inkscape="http://www.inkscape.org/namespaces/inkscape"
   xmlns:sodipodi="http://sodipodi.sourceforge.net/DTD/sodipodi-0.dtd"
   xmlns="http://www.w3.org/2000/svg"
   xmlns:svg="http://www.w3.org/2000/svg">
  <defs
     id="defs4688">
    <clipPath
       clipPathUnits="userSpaceOnUse"
       id="clipPath940">
      <path
         d="M 0,2000 H 1280 V 0 H 0 Z"
         id="path938" />
    </clipPath>
  </defs>
  <sodipodi:namedview
     id="namedview4686"
     pagecolor="#ffffff"
     bordercolor="#666666"
     borderopacity="1.0"
     inkscape:pageshadow="2"
     inkscape:pageopacity="0.0"
     inkscape:pagecheckerboard="0" />
  <inkscape:clipboard
     style="font-variation-settings:normal;opacity:1;vector-effect:none;fill:#000000;fill-opacity:1;stroke-width:1.3333333;stroke-linecap:butt;stroke-linejoin:miter;stroke-miterlimit:4;stroke-dasharray:none;stroke-dashoffset:0;stroke-opacity:1;-inkscape-stroke:none;stop-color:#000000;stop-opacity:1"
     min="128.51586,65.777537"
     max="446.39026,256.63146"
     geom-min="128.51586,65.777537"
     geom-max="446.39026,256.63146" />
  <g
     id="g4692"
     transform="matrix(1.3333333,0,0,-1.3333333,-128.51586,2600.8892)">
    <g
       id="g934"
       inkscape:export-filename="/home/arman/Downloads/g934.png"
       inkscape:export-xdpi="96"
       inkscape:export-ydpi="96">
      <g
         id="g936"
         clip-path="url(#clipPath940)">
        <g
           id="g942"
           transform="translate(116.9609,1896.4731)">
          <path
             d="m 0,0 c 0,-0.714 -0.119,-1.368 -0.535,-2.319 -1.249,-3.033 -1.308,-6.719 -1.308,-8.146 0,-0.298 0.059,-1.19 0.059,-2.022 0,-0.416 -0.178,-0.892 -0.773,-0.892 -0.654,0 -0.832,0.416 -0.832,0.892 0,2.914 -0.654,3.568 -2.438,3.568 -1.606,0 -2.2,-1.368 -2.2,-6.184 0,-0.892 0.059,-1.844 0.059,-2.676 0,-0.833 -0.059,-1.308 -0.714,-1.308 -2.2,0 -0.178,8.86 -2.319,8.86 -0.654,0 -1.01,-0.417 -1.01,-1.368 0,-0.476 0.178,-1.546 0.178,-1.962 0,-0.417 -0.178,-0.655 -0.595,-0.655 -0.951,0 -1.129,0.536 -1.129,1.071 0,3.389 -0.714,3.092 -1.903,4.578 -0.535,0.595 -0.654,1.665 -1.368,1.665 -0.535,0 -0.594,-1.546 -1.189,-1.546 -1.784,0 -2.379,4.936 -2.379,7.671 0,2.438 2.141,3.806 4.044,3.806 1.308,0 2.081,-0.595 2.557,-2.141 0.951,-3.271 2.616,-4.103 3.984,-4.103 1.724,0 2.438,1.903 2.438,3.806 0,0.832 -0.417,1.486 -1.071,2.081 -3.032,2.735 -2.497,3.687 -3.984,5.827 -0.713,1.07 -2.557,1.843 -3.686,4.044 -0.714,1.308 -0.714,4.043 -1.665,4.043 -0.833,0 -0.952,-2.2 -1.784,-2.2 -0.714,0 -1.011,1.368 -1.011,2.616 0,0.892 0.535,1.665 0.535,3.746 0,1.19 0.06,3.39 0.357,4.876 0.297,1.368 3.092,3.984 4.4,4.698 0.357,0.119 5.114,2.259 5.709,2.259 0.118,-0.059 0.237,-0.059 0.356,-0.059 1.963,-0.178 3.628,-0.952 5.055,-2.2 1.486,-1.368 3.805,-4.936 3.805,-7.493 0,-1.427 -0.476,-2.794 -0.476,-3.924 0,-2.141 -0.118,-3.746 -0.654,-3.746 -1.843,0 -0.713,6.243 -2.14,6.243 -1.903,0 -1.071,-3.389 -2.081,-3.389 -2.141,0 -0.655,5.768 -2.319,5.768 -0.476,0 -0.595,-0.476 -0.595,-1.07 0,-0.238 0.059,-0.595 0.059,-0.833 0,-0.713 -0.237,-1.189 -0.951,-1.189 -0.416,0 -0.892,0.357 -0.892,0.892 0,0.951 0.178,1.189 0.178,2.2 0,0.951 -0.416,1.13 -0.832,1.13 -0.951,0 -1.368,-2.438 -1.368,-4.163 0,-2.973 2.676,-5.827 6.006,-7.73 1.843,-1.07 2.379,-3.27 2.854,-3.805 1.011,-1.19 3.092,-1.546 3.092,-4.282 0,-0.892 0,-1.664 0.06,-1.962 C -0.178,2.022 0,0.892 0,0"
             style="fill:#ed0a00;fill-opacity:1;fill-rule:nonzero;stroke:none"
             id="path944" />
        </g>
        <g
           id="g946"
           transform="translate(137.3557,1889.9918)">
          <path
             d="m 0,0 c 0,-0.297 0.119,-1.011 0.119,-1.903 0,-0.713 -0.297,-1.011 -0.892,-1.011 -0.416,0 -2.26,0.595 -2.973,0.595 -0.714,0 -1.249,-0.535 -1.249,-1.249 0.179,-1.011 0.654,-1.308 0.654,-2.854 0,-0.476 -0.059,-0.654 -0.594,-0.654 -0.892,-0.059 -1.546,4.4 -2.617,4.4 -0.892,0 -1.486,-1.13 -1.486,-1.546 0,-0.476 0.357,-0.832 0.357,-1.249 0,-1.129 -0.357,-1.308 -0.833,-1.308 -1.843,0 -1.487,3.687 -2.497,3.687 -0.179,0 -0.595,-0.892 -1.13,-0.892 -0.416,0 -1.308,0.892 -1.724,0.892 -0.238,0 -0.714,-0.357 -0.952,-0.357 -1.07,0 -0.714,2.141 -0.832,2.617 v 1.129 c 0,0.298 0.059,1.071 0.059,1.487 v 1.308 c 0,1.903 0.416,6.184 0.416,8.027 0,1.428 0.773,3.449 0.773,3.747 0,0.535 -0.237,0.832 -0.892,0.832 -0.238,0 -0.594,-0.178 -0.832,-0.178 -0.476,0 -0.535,0.654 -0.535,1.011 0,0.297 0,0.594 0.238,1.129 0.713,1.249 0.832,3.033 0.832,4.341 0,2.022 0.773,3.508 0.773,4.995 0,0.416 -0.595,2.021 -0.595,2.854 0,0.595 0.119,1.546 0.119,2.081 0,0.476 -0.297,1.487 -0.297,2.081 0,0.298 0.178,0.773 0.178,1.071 0,0.416 -0.594,1.13 -0.594,1.605 0,0.952 0.951,1.368 2.259,1.368 0.238,0 0.773,-0.06 1.19,-0.06 1.07,0 1.308,0.535 2.2,0.535 0.535,0 1.13,-0.535 1.546,-0.535 0.416,0 0.594,0.357 1.189,0.357 0.832,0 1.903,-0.951 2.795,-0.951 0.594,0 1.189,0.654 2.021,0.654 0.595,0 0.833,-0.298 1.249,-0.298 0.416,0 0.654,0.417 1.546,0.417 0.416,0 0.714,-0.773 0.714,-2.973 0,-1.546 0.832,-7.017 0.832,-9.158 0,-0.713 -0.357,-1.129 -1.189,-1.129 -0.535,0 -0.833,0.297 -0.833,0.892 0,0.475 0.119,2.081 0.119,2.259 0,2.081 -0.178,3.865 -0.535,3.865 -1.07,0 -0.059,-3.924 -1.248,-3.924 -0.357,0 -0.595,0.178 -0.655,0.475 -0.297,1.368 -0.416,1.844 -0.594,2.141 -0.773,0.535 -1.487,1.07 -2.2,1.07 -1.308,0 -1.427,-1.486 -2.081,-1.486 -0.357,0 -0.536,0.119 -0.773,0.119 -1.309,0 -1.606,-1.368 -1.606,-3.211 0,-3.508 2.26,-5.53 3.152,-5.53 0.178,0 2.021,0.416 2.259,0.416 0.892,0.178 2.2,0.178 2.498,0.178 0.594,0 1.01,-0.654 1.01,-1.486 0,-0.416 -0.535,-1.487 -0.535,-2.081 0,-1.249 1.13,-4.341 1.13,-5.233 0,-1.07 -0.892,-2.557 -1.427,-2.557 -1.189,0 -0.297,3.27 -1.784,3.27 -1.249,0 -0.238,-2.2 -1.249,-2.2 -0.713,0 -0.951,1.963 -1.605,1.963 -0.416,0 -0.833,0.237 -1.249,0.237 -0.535,0 -0.773,-0.118 -0.773,-0.594 0,-0.476 0.416,-1.07 0.416,-3.806 0,-0.892 -0.832,-2.497 -0.832,-3.151 0,-0.952 0.832,-2.2 3.389,-2.2 0.357,0 0.833,0.059 1.368,0.059 0.832,0 2.378,-0.476 3.151,-0.476 0.238,0 0.536,0.06 0.833,0.06 0.892,0 1.843,-0.951 1.843,-1.843 C 0.535,1.486 0,0.535 0,0"
             style="fill:#ed0a00;fill-opacity:1;fill-rule:nonzero;stroke:none"
             id="path948" />
        </g>
        <g
           id="g950"
           transform="translate(162.0921,1897.5436)">
          <path
             d="m 0,0 c -0.595,-1.011 -0.654,-2.557 -0.654,-3.687 0,-4.281 0.357,-3.508 0.357,-4.876 0,-0.654 -0.119,-1.248 -1.071,-2.616 -0.178,-0.238 -0.297,-0.535 -0.297,-0.713 0,-0.476 0.416,-2.022 0.416,-2.676 0,-0.714 -0.594,-0.952 -1.07,-0.952 -0.595,0 -0.951,0.417 -0.951,1.13 0,0.297 0.059,0.951 0.059,1.189 0,2.081 -0.416,2.736 -0.832,2.736 -0.714,0 -0.714,-1.725 -1.19,-1.725 -0.832,0 -1.189,2.973 -1.962,4.281 -0.892,1.368 -1.605,1.665 -1.605,3.33 0,1.487 0.535,1.963 0.535,3.627 0,0.655 -0.238,0.892 -0.714,0.892 -0.951,0 -1.308,-0.773 -1.308,-2.437 0,-1.844 -0.892,-2.557 -1.308,-2.557 -0.298,0 -0.476,0.416 -0.476,1.248 0,1.844 0.416,3.746 0.416,6.125 0,3.449 -0.832,7.908 -2.081,7.908 -0.475,0 -0.951,-0.713 -0.951,-1.843 0,-1.011 0.357,-2.141 0.357,-3.092 0,-0.714 -0.238,-1.427 -0.238,-2.378 0,-0.595 0.416,-2.141 0.416,-3.39 0,-0.832 -0.892,-1.605 -0.892,-2.438 0,-0.832 0.595,-2.319 0.595,-3.151 0,-1.844 0.356,-1.903 0.356,-2.735 0,-1.19 -1.129,-2.26 -1.129,-2.557 0,-0.892 0.119,-1.606 0.119,-2.022 0,-0.595 -0.238,-0.892 -0.773,-0.892 -0.357,0 -0.655,0.476 -0.714,1.308 -0.178,2.557 -2.022,2.795 -2.438,2.795 -0.416,0 -1.07,-0.179 -1.07,-0.833 0,-0.356 0.475,-1.546 0.475,-2.081 0,-1.486 -0.594,-1.724 -0.773,-1.724 -0.594,0 -1.367,2.319 -1.367,3.686 0,1.428 0.119,2.022 0.119,2.557 0,0.714 -0.119,1.368 -0.119,2.082 0,1.724 0.951,3.21 0.951,5.113 0,0.535 -0.476,2.438 -0.476,3.746 0,1.725 1.606,3.211 1.606,5.114 0,1.487 -1.011,3.925 -1.011,4.46 0,0.773 1.011,3.805 1.011,5.173 0,1.368 -1.011,2.557 -1.011,4.043 0,1.249 1.011,3.093 1.011,3.509 0,1.189 -0.357,2.795 -0.357,3.805 0,1.546 1.189,2.855 4.163,2.855 2.081,0 3.032,-0.536 3.032,-1.606 0,-0.832 -0.238,-1.486 -0.238,-2.259 0,-2.557 1.071,-2.617 2.914,-6.244 0.892,-1.724 0.654,-5.411 0.892,-6.422 0.059,-0.357 0.951,-1.427 0.951,-2.557 0,-0.416 -0.238,-0.773 -0.238,-1.07 0,-1.725 0.179,-2.557 1.071,-2.557 0.475,0 0.832,0.238 0.832,0.892 0,1.13 0.476,1.784 0.476,3.092 0,0.416 -0.773,2.914 -0.773,5.173 0,3.449 0.654,4.995 0.654,6.363 0,1.248 -1.07,3.33 -1.07,4.4 0,1.903 2.676,2.676 4.935,2.676 2.081,0 3.211,-1.725 3.211,-4.163 0,-0.535 -0.833,-2.854 -0.833,-3.568 0,-2.2 1.606,-4.162 1.606,-6.481 0,-1.367 -0.951,-2.081 -1.724,-2.914 -0.476,-0.594 -0.833,-2.378 -0.833,-3.092 0,-0.713 0.892,-3.984 0.892,-4.994 0,-0.536 -0.119,-0.892 -0.119,-1.487 0,-0.178 0.952,-2.2 0.952,-2.914 C 0.714,1.07 0.357,0.535 0,0"
             style="fill:#ed0a00;fill-opacity:1;fill-rule:nonzero;stroke:none"
             id="path952" />
        </g>
        <g
           id="g954"
           transform="translate(184.2116,1924.3015)">
          <path
             d="m 0,0 c 0,-0.951 -0.892,-3.33 -0.892,-4.519 0,-1.308 0.238,-1.546 0.238,-1.962 0,-0.714 -0.179,-1.011 -0.714,-1.011 -1.546,0 -0.713,3.984 -1.486,3.984 -0.654,0 -0.714,-1.487 -1.249,-1.487 -0.773,0 -1.07,1.308 -2.081,1.308 -1.308,0 -1.665,-0.892 -1.665,-3.27 0,-0.595 0.238,-1.487 0.238,-1.903 0,-1.784 -0.357,-3.092 -0.357,-4.103 0,-3.032 1.189,-3.686 1.189,-7.789 0,-3.033 -1.07,-4.519 -1.07,-6.898 0,-1.724 0.535,-2.497 0.535,-3.746 0,-0.416 -0.178,-1.011 -0.178,-1.368 0,-0.654 0.713,-1.903 0.713,-2.616 -0.178,-1.724 -3.151,-0.892 -3.151,-4.46 0,-1.665 0.713,-2.854 0.713,-4.816 0,-0.654 -0.594,-1.189 -1.724,-1.189 -0.952,0 -1.427,0.356 -1.427,1.129 0,1.071 0.595,2.022 0.595,3.033 0,2.022 0,4.935 -1.071,4.935 -0.535,0 -0.476,-1.011 -1.07,-1.011 -0.892,0 -1.368,4.103 -1.368,5.412 0,3.627 1.546,8.74 1.546,10.108 0,2.676 -0.297,3.092 -0.297,3.984 0,1.308 0.416,5.649 0.713,8.265 0.238,2.082 0.773,4.638 0.773,5.709 0,1.189 -1.129,1.189 -1.665,1.189 -1.664,0 -1.129,-3.924 -2.735,-3.924 -1.367,0 -0.832,3.924 -2.794,3.924 -0.655,0 -1.428,0.476 -1.428,1.189 0,0.476 0.833,1.546 0.833,2.26 0,0.654 -0.535,2.319 -0.535,2.794 0,0.536 0.297,0.714 0.773,0.714 1.011,0 1.902,-0.892 2.973,-0.892 2.259,0 3.508,1.249 4.995,1.249 2.675,0 3.211,-0.773 6.065,-0.773 1.724,0 2.854,0.832 3.687,0.832 C -0.714,4.281 0,1.487 0,0"
             style="fill:#ed0a00;fill-opacity:1;fill-rule:nonzero;stroke:none"
             id="path956" />
        </g>
        <g
           id="g958"
           transform="translate(247.3365,1862.0895)">
          <path
             d="m 0,0 c 0,-0.715 -0.119,-1.37 -0.536,-2.323 -1.251,-3.039 -1.311,-6.733 -1.311,-8.162 0,-0.298 0.06,-1.192 0.06,-2.026 0,-0.417 -0.179,-0.894 -0.775,-0.894 -0.655,0 -0.834,0.417 -0.834,0.894 0,2.919 -0.655,3.575 -2.443,3.575 -1.608,0 -2.204,-1.371 -2.204,-6.196 0,-0.894 0.06,-1.847 0.06,-2.681 0,-0.834 -0.06,-1.311 -0.715,-1.311 -2.204,0 -0.179,8.877 -2.324,8.877 -0.655,0 -1.012,-0.417 -1.012,-1.37 0,-0.477 0.178,-1.549 0.178,-1.966 0,-0.417 -0.178,-0.656 -0.596,-0.656 -0.953,0 -1.131,0.536 -1.131,1.073 0,3.395 -0.715,3.098 -1.907,4.587 -0.536,0.596 -0.655,1.668 -1.37,1.668 -0.536,0 -0.596,-1.549 -1.192,-1.549 -1.787,0 -2.383,4.945 -2.383,7.686 0,2.442 2.145,3.812 4.051,3.812 1.311,0 2.086,-0.595 2.562,-2.144 0.953,-3.277 2.622,-4.111 3.992,-4.111 1.728,0 2.443,1.906 2.443,3.813 0,0.834 -0.418,1.489 -1.073,2.085 -3.038,2.741 -2.502,3.694 -3.992,5.839 -0.714,1.072 -2.561,1.846 -3.693,4.051 -0.715,1.31 -0.715,4.051 -1.668,4.051 -0.835,0 -0.954,-2.204 -1.788,-2.204 -0.715,0 -1.012,1.37 -1.012,2.621 0,0.894 0.536,1.668 0.536,3.753 0,1.192 0.059,3.396 0.357,4.886 0.298,1.37 3.098,3.991 4.409,4.706 0.357,0.119 5.123,2.264 5.719,2.264 0.119,-0.059 0.238,-0.059 0.358,-0.059 1.966,-0.179 3.634,-0.954 5.064,-2.205 1.489,-1.37 3.813,-4.945 3.813,-7.507 0,-1.429 -0.477,-2.8 -0.477,-3.932 0,-2.144 -0.119,-3.753 -0.655,-3.753 -1.847,0 -0.715,6.256 -2.145,6.256 -1.907,0 -1.073,-3.396 -2.085,-3.396 -2.145,0 -0.656,5.779 -2.324,5.779 -0.476,0 -0.596,-0.477 -0.596,-1.073 0,-0.238 0.06,-0.595 0.06,-0.834 0,-0.715 -0.238,-1.191 -0.953,-1.191 -0.417,0 -0.894,0.357 -0.894,0.893 0,0.954 0.179,1.192 0.179,2.205 0,0.953 -0.417,1.132 -0.834,1.132 -0.953,0 -1.371,-2.443 -1.371,-4.171 0,-2.979 2.682,-5.838 6.018,-7.745 1.847,-1.072 2.383,-3.276 2.859,-3.813 1.013,-1.191 3.098,-1.549 3.098,-4.289 0,-0.894 0,-1.668 0.06,-1.966 C -0.179,2.026 0,0.894 0,0"
             style="fill:#ed0a00;fill-opacity:1;fill-rule:nonzero;stroke:none"
             id="path960" />
        </g>
        <g
           id="g962"
           transform="translate(269.7961,1863.4598)">
          <path
             d="m 0,0 c 0,-4.409 1.251,-7.09 1.251,-7.804 0,-1.49 -1.311,-3.158 -1.847,-3.158 -0.238,0 -0.893,0.179 -1.072,0.179 -0.179,0 -0.834,0 -0.834,-0.715 0,-0.477 0.417,-2.085 0.417,-1.966 0,-0.477 -0.239,-0.715 -0.715,-0.715 -0.179,0 -0.298,0.298 -0.298,0.953 v 1.013 c 0,1.191 -0.298,1.668 -0.834,1.668 -0.655,0 -1.37,-0.953 -2.026,-0.953 -0.357,0 -0.595,0.417 -0.595,1.132 v 1.251 c -0.06,0.655 -0.477,4.17 -0.477,4.706 0,0.298 0.119,1.192 0.119,1.371 0,0.238 -0.06,0.417 -0.06,0.834 0,1.191 1.132,3.217 1.132,4.587 0,0.596 0.358,2.979 0.358,3.753 0,0.834 -0.298,1.251 -0.715,1.251 -0.357,0 -1.489,-1.608 -1.907,-1.608 -0.297,0 -1.072,0.298 -1.251,0.298 -0.238,0 -0.595,-0.298 -0.595,-0.775 0,-0.059 0.238,-0.536 0.238,-1.549 V 2.979 c 0,-0.358 -0.179,-0.894 -0.536,-0.894 -0.358,0 -0.894,1.49 -1.49,1.49 -0.178,0 -0.357,-0.179 -0.357,-0.477 0,-0.536 0.596,-2.324 0.596,-3.098 0,-0.953 -0.358,-2.8 -0.358,-3.336 0,-0.656 0.358,-1.311 0.358,-2.324 0,-0.238 -0.06,-0.357 -0.06,-0.596 0,-1.37 0.656,-2.74 0.656,-2.8 0,-0.655 -0.656,-1.668 -1.073,-1.668 -0.119,0 -0.179,0.06 -0.417,0.06 -0.834,0 -2.145,-0.238 -2.442,-1.43 0,-0.477 0.714,-1.251 0.714,-1.668 0,-0.417 -0.238,-0.655 -0.714,-0.655 -0.418,0 -0.835,0.417 -0.835,0.893 0.06,0.715 0.179,1.251 0.179,1.668 0,0.894 -0.298,1.311 -0.834,1.311 -0.655,0 -1.728,-1.311 -2.025,-1.311 -0.239,0 -0.477,0.179 -0.477,0.536 -0.06,0.06 0.477,1.788 0.477,2.503 0,0.595 -0.537,1.668 -0.537,2.085 0,0.476 0.894,1.847 0.894,2.323 0,1.966 -1.728,0.715 -1.728,3.337 0,0.774 1.013,2.561 1.013,3.455 v 2.264 c 0,3.217 1.191,6.97 1.191,7.447 0,1.311 -0.774,3.515 -1.131,3.515 -0.239,0 -0.537,-0.536 -0.715,-0.536 -0.298,0.059 -0.417,0.357 -0.417,0.894 0,1.31 1.132,5.659 1.132,8.221 0,1.549 -0.12,2.562 -0.12,3.575 0,1.31 1.013,2.919 2.801,2.919 0.297,0 1.072,-0.179 1.549,-0.179 0.297,0 0.536,0.119 0.953,0.119 1.43,0 1.549,-2.204 1.549,-3.634 0,-4.17 1.37,-4.945 1.37,-6.494 0,-1.072 -1.43,0.239 -1.43,-2.8 0,-1.906 0.596,-3.336 1.847,-3.336 0.298,0 0.715,0.179 1.072,0.179 0.775,0 2.145,-0.477 2.085,-0.477 0.298,0 0.477,0.238 0.537,0.596 0,0.119 -0.417,1.608 -0.417,2.204 v 3.039 c 0,3.336 -0.06,4.17 -0.06,4.647 0,0.893 0.477,2.383 0.477,2.919 0,1.013 -0.894,1.43 -0.894,1.787 0,0.834 1.37,1.609 2.621,1.609 1.669,0 2.443,-0.239 2.801,-0.239 0.238,0 1.251,0.358 1.489,0.358 1.489,-0.298 1.668,-2.502 1.668,-5.362 0,-1.132 -0.119,-2.979 -0.417,-3.694 L 0.298,20.733 C 0.119,20.256 0.06,19.72 0.06,19.064 c 0,-2.085 0.953,-5.242 0.953,-5.838 V 12.392 C 1.013,10.724 1.251,9.711 1.251,9.473 1.251,8.698 0.834,7.447 0.834,6.732 0.834,6.017 1.489,4.647 1.489,4.17 1.489,4.111 1.43,3.872 1.37,3.575 1.251,3.217 0,1.787 0,0"
             style="fill:#ed0a00;fill-opacity:1;fill-rule:nonzero;stroke:none"
             id="path964" />
        </g>
        <g
           id="g966"
           transform="translate(308.0436,1862.9236)">
          <path
             d="m 0,0 c -0.596,-1.013 -0.655,-2.562 -0.655,-3.694 0,-4.289 0.357,-3.515 0.357,-4.885 0,-0.655 -0.119,-1.251 -1.072,-2.621 -0.179,-0.239 -0.298,-0.537 -0.298,-0.715 0,-0.477 0.417,-2.026 0.417,-2.681 0,-0.715 -0.596,-0.953 -1.072,-0.953 -0.596,0 -0.954,0.417 -0.954,1.132 0,0.297 0.06,0.953 0.06,1.191 0,2.085 -0.417,2.741 -0.834,2.741 -0.715,0 -0.715,-1.728 -1.192,-1.728 -0.834,0 -1.191,2.979 -1.966,4.289 -0.893,1.371 -1.608,1.669 -1.608,3.337 0,1.489 0.536,1.966 0.536,3.634 0,0.655 -0.238,0.893 -0.715,0.893 -0.953,0 -1.311,-0.774 -1.311,-2.442 0,-1.847 -0.893,-2.562 -1.31,-2.562 -0.298,0 -0.477,0.417 -0.477,1.251 0,1.847 0.417,3.753 0.417,6.136 0,3.456 -0.834,7.924 -2.085,7.924 -0.477,0 -0.953,-0.715 -0.953,-1.847 0,-1.013 0.357,-2.145 0.357,-3.098 0,-0.715 -0.238,-1.43 -0.238,-2.383 0,-0.596 0.417,-2.144 0.417,-3.396 0,-0.834 -0.894,-1.608 -0.894,-2.442 0,-0.834 0.596,-2.324 0.596,-3.158 0,-1.847 0.357,-1.906 0.357,-2.74 0,-1.192 -1.132,-2.264 -1.132,-2.562 0,-0.894 0.119,-1.609 0.119,-2.026 0,-0.595 -0.238,-0.893 -0.774,-0.893 -0.358,0 -0.655,0.476 -0.715,1.31 -0.179,2.562 -2.026,2.8 -2.442,2.8 -0.418,0 -1.073,-0.178 -1.073,-0.834 0,-0.357 0.477,-1.549 0.477,-2.085 0,-1.489 -0.596,-1.727 -0.775,-1.727 -0.596,0 -1.37,2.323 -1.37,3.693 0,1.43 0.119,2.026 0.119,2.562 0,0.715 -0.119,1.37 -0.119,2.085 0,1.728 0.953,3.217 0.953,5.124 0,0.536 -0.476,2.442 -0.476,3.753 0,1.728 1.608,3.217 1.608,5.124 0,1.489 -1.013,3.932 -1.013,4.468 0,0.774 1.013,3.813 1.013,5.183 0,1.37 -1.013,2.562 -1.013,4.051 0,1.251 1.013,3.098 1.013,3.515 0,1.192 -0.357,2.8 -0.357,3.813 0,1.549 1.191,2.86 4.17,2.86 2.085,0 3.038,-0.536 3.038,-1.609 0,-0.834 -0.238,-1.489 -0.238,-2.264 0,-2.561 1.073,-2.621 2.919,-6.255 0.894,-1.728 0.656,-5.422 0.894,-6.434 0.06,-0.358 0.953,-1.43 0.953,-2.562 0,-0.417 -0.238,-0.775 -0.238,-1.073 0,-1.727 0.179,-2.561 1.072,-2.561 0.477,0 0.834,0.238 0.834,0.893 0,1.132 0.477,1.788 0.477,3.098 0,0.417 -0.774,2.92 -0.774,5.183 0,3.456 0.655,5.005 0.655,6.375 0,1.251 -1.072,3.336 -1.072,4.409 0,1.906 2.68,2.681 4.944,2.681 2.086,0 3.217,-1.728 3.217,-4.171 0,-0.536 -0.834,-2.859 -0.834,-3.574 0,-2.205 1.609,-4.171 1.609,-6.494 0,-1.37 -0.953,-2.085 -1.728,-2.919 -0.476,-0.596 -0.834,-2.383 -0.834,-3.098 0,-0.715 0.894,-3.992 0.894,-5.005 0,-0.536 -0.119,-0.893 -0.119,-1.489 0,-0.179 0.953,-2.205 0.953,-2.919 C 0.715,1.072 0.357,0.536 0,0"
             style="fill:#ed0a00;fill-opacity:1;fill-rule:nonzero;stroke:none"
             id="path968" />
        </g>
        <g
           id="g970"
           transform="translate(331.7547,1893.9034)">
          <path
             d="m 0,0 c 0.894,0 1.132,0.477 1.787,0.477 0.894,0 1.251,-1.609 1.251,-4.767 0,-2.561 -0.362,-4.587 -0.362,-7.327 0,-0.894 -0.279,-2.773 -0.279,-3.607 0,-1.132 0.509,-3.392 0.509,-4.464 0,-1.251 -1,-2.057 -1,-4.321 0,-1.192 -0.298,-1.966 -0.298,-3.456 0,-1.013 0.06,-2.204 0.06,-3.336 0,-3.396 -0.06,-3.634 -0.834,-5.481 -0.179,-0.358 0.344,-2.296 -2.039,-4.322 -0.953,-0.774 -3.204,-0.98 -3.204,-1.934 0,-1.191 0.358,-1.668 0.358,-2.264 0,-0.834 -0.477,-1.132 -1.132,-1.132 -0.894,0 -1.073,0.477 -1.073,1.252 0,0.715 0.179,1.489 0.179,1.668 0,0.476 -0.477,1.072 -1.132,1.072 -0.596,-0.059 -0.655,-0.894 -1.31,-0.894 -0.418,0 -1.311,1.013 -1.609,1.013 -0.417,0 -0.715,-0.238 -0.715,-1.132 0,-0.893 0.715,-2.919 0.715,-5.421 0,-0.655 -0.358,-1.728 -1.549,-1.728 -0.834,0 -1.251,0.477 -1.251,1.549 0,2.204 0.357,3.873 0.357,4.707 0,0.595 0.06,2.383 -1.906,4.527 -3.158,3.456 -4.409,7.448 -4.409,11.32 0,1.43 0.119,2.8 0.119,4.349 0,1.787 -0.238,3.873 -0.238,5.898 0,3.337 0.953,6.434 0.953,10.486 0,0.834 0,1.549 -0.059,2.085 -0.179,2.145 -1.311,2.323 -1.311,3.813 0,1.787 3.038,2.681 4.289,2.681 2.503,0 3.754,-0.775 4.29,-4.886 0.357,-2.859 0.655,-4.885 0.655,-7.327 0,-5.541 -1.251,-11.26 -1.43,-13.227 -0.238,-2.085 -0.416,-4.289 -0.416,-5.123 0,-4.17 3.336,-5.362 4.229,-5.362 1.43,0 2.443,1.668 2.443,7.268 0,5.481 -0.596,8.46 -0.596,11.618 0,2.323 0.536,4.587 0.536,7.149 0,1.072 -1.132,5.481 -1.132,7.268 0,2.086 1.728,2.086 2.681,2.086 C -2.502,0.775 -0.834,0 0,0"
             style="fill:#ed0a00;fill-opacity:1;fill-rule:nonzero;stroke:none"
             id="path972" />
        </g>
        <g
           id="g974"
           transform="translate(209.0712,1856.1688)">
          <path
             d="M 0,0 -0.6,1.564 C -1.691,1.153 -0.886,0.705 -1.271,-0.054 Z"
             style="fill:#ed0a00;fill-opacity:1;fill-rule:nonzero;stroke:none"
             id="path976" />
        </g>
        <g
           id="g978"
           transform="translate(207.8587,1807.7274)">
          <path
             d="M 0,0 C 0.545,-0.635 1.106,0.365 1.624,1.195 L -0.265,1.686 Z"
             style="fill:#ed0a00;fill-opacity:1;fill-rule:nonzero;stroke:none"
             id="path980" />
        </g>
        <g
           id="g982"
           transform="translate(207.9977,1811.5861)">
          <path
             d="M 0,0 C -0.693,0.579 -1.388,1.168 -2.083,1.77 L -1.026,0.446 C -1.833,-1.191 -3.05,0.471 -3.459,1.048 -2.743,-1.493 -1.112,0.316 0,0"
             style="fill:#ed0a00;fill-opacity:1;fill-rule:nonzero;stroke:none"
             id="path984" />
        </g>
        <g
           id="g986"
           transform="translate(206.2166,1815.2646)">
          <path
             d="M 0,0 C 0.088,1.252 -1.138,0.848 -1.508,0.295 -0.975,0.238 -0.368,-0.547 0,0"
             style="fill:#ed0a00;fill-opacity:1;fill-rule:nonzero;stroke:none"
             id="path988" />
        </g>
        <g
           id="g990"
           transform="translate(229.2215,1886.9563)">
          <path
             d="M 0,0 C -0.392,-0.178 -0.739,-0.451 -1.015,-0.245 -0.861,-0.752 -0.654,-0.948 0,0"
             style="fill:#ed0a00;fill-opacity:1;fill-rule:nonzero;stroke:none"
             id="path992" />
        </g>
        <g
           id="g994"
           transform="translate(228.2069,1886.7112)">
          <path
             d="M 0,0 C -0.027,0.096 -0.055,0.2 -0.075,0.315 -0.086,0.234 -0.106,0.172 -0.101,0.071 -0.069,0.029 -0.033,0.025 0,0"
             style="fill:#ed0a00;fill-opacity:1;fill-rule:nonzero;stroke:none"
             id="path996" />
        </g>
        <g
           id="g998"
           transform="translate(211.0449,1839.8281)">
          <path
             d="M 0,0 1.286,0.142 0.772,2.214 C -0.354,1.597 0.434,1.042 0,0"
             style="fill:#ed0a00;fill-opacity:1;fill-rule:nonzero;stroke:none"
             id="path1000" />
        </g>
        <g
           id="g1002"
           transform="translate(207.3498,1840.8458)">
          <path
             d="M 0,0 0.404,-1.135 0.595,0.568 Z"
             style="fill:#ed0a00;fill-opacity:1;fill-rule:nonzero;stroke:none"
             id="path1004" />
        </g>
        <g
           id="g1006"
           transform="translate(215.1679,1862.9225)">
          <path
             d="M 0,0 -0.057,-0.983 -0.081,-1.974 0.008,-0.937 0.135,0.091 0.391,2.156 0.121,1.974 Z"
             style="fill:#ed0a00;fill-opacity:1;fill-rule:nonzero;stroke:none"
             id="path1008" />
        </g>
        <g
           id="g1010"
           transform="translate(230.3509,1884.5516)">
          <path
             d="M 0,0 C 0.068,0.611 0.136,1.224 0.228,1.828 L -0.068,1.697 C 0.31,1.021 -0.202,0.599 0,0"
             style="fill:#ed0a00;fill-opacity:1;fill-rule:nonzero;stroke:none"
             id="path1012" />
        </g>
        <g
           id="g1014"
           transform="translate(241.4862,1899.5833)">
          <path
             d="M 0,0 C -0.228,-1.07 1.002,-0.792 1.484,-1.443 -0.076,0.305 2.195,-0.365 0,0"
             style="fill:#ed0a00;fill-opacity:1;fill-rule:nonzero;stroke:none"
             id="path1016" />
        </g>
        <g
           id="g1018"
           transform="translate(242.2817,1903.166)">
          <path
             d="M 0,0 C -0.386,-0.459 -0.287,-0.919 -0.184,-1.372 1.09,-1.264 0.131,-0.612 0,0"
             style="fill:#ed0a00;fill-opacity:1;fill-rule:nonzero;stroke:none"
             id="path1020" />
        </g>
        <g
           id="g1022"
           transform="translate(197.6308,1835.9547)">
          <path
             d="M 0,0 0.299,0.174 C 0.177,0.18 0.044,0.12 0,0"
             style="fill:#ed0a00;fill-opacity:1;fill-rule:nonzero;stroke:none"
             id="path1024" />
        </g>
        <g
           id="g1026"
           transform="translate(198.4547,1828.9395)">
          <path
             d="M 0,0 C 0.02,0.005 0.038,0.006 0.065,0.017 0.039,0.028 0.018,0.017 0,0"
             style="fill:#ed0a00;fill-opacity:1;fill-rule:nonzero;stroke:none"
             id="path1028" />
        </g>
        <g
           id="g1030"
           transform="translate(199.6563,1831.6058)">
          <path
             d="M 0,0 C -0.024,0.059 -0.072,0.128 -0.119,0.198 -0.112,0.116 -0.115,0.011 0,0"
             style="fill:#ed0a00;fill-opacity:1;fill-rule:nonzero;stroke:none"
             id="path1032" />
        </g>
        <g
           id="g1034"
           transform="translate(199.4687,1831.8983)">
          <path
             d="M 0,0 0.068,-0.095 C 0.061,-0.043 0.05,-0.001 0,0"
             style="fill:#ed0a00;fill-opacity:1;fill-rule:nonzero;stroke:none"
             id="path1036" />
        </g>
        <g
           id="g1038"
           transform="translate(267.4379,1946.1143)">
          <path
             d="M 0,0 -0.159,-0.622 C -0.005,-0.509 -0.02,-0.245 0,0"
             style="fill:#ed0a00;fill-opacity:1;fill-rule:nonzero;stroke:none"
             id="path1040" />
        </g>
        <g
           id="g1042"
           transform="translate(265.8958,1947.5397)">
          <path
             d="M 0,0 0.143,0.042 C 0.075,0.046 0.031,0.029 0,0"
             style="fill:#ed0a00;fill-opacity:1;fill-rule:nonzero;stroke:none"
             id="path1044" />
        </g>
        <g
           id="g1046"
           transform="translate(197.1869,1839.735)">
          <path
             d="M 0,0 C -0.266,0.235 0.132,0.61 -0.14,0.638 -0.128,0.419 -0.375,0.138 0,0"
             style="fill:#ed0a00;fill-opacity:1;fill-rule:nonzero;stroke:none"
             id="path1048" />
        </g>
        <g
           id="g1050"
           transform="translate(265.7304,1947.4896)">
          <path
             d="M 0,0 C 0.044,-0.032 0.084,-0.052 0.126,-0.076 0.127,-0.023 0.139,0.021 0.165,0.05 Z"
             style="fill:#ed0a00;fill-opacity:1;fill-rule:nonzero;stroke:none"
             id="path1052" />
        </g>
        <g
           id="g1054"
           transform="translate(267.4379,1946.1143)">
          <path
             d="M 0,0 0.09,0.355 C 0.03,0.266 0.009,0.135 0,0"
             style="fill:#ed0a00;fill-opacity:1;fill-rule:nonzero;stroke:none"
             id="path1056" />
        </g>
        <g
           id="g1058"
           transform="translate(203.7045,1878.6763)">
          <path
             d="M 0,0 C -0.017,0.166 -0.081,0.347 -0.214,0.547 -0.198,0.548 -0.186,0.545 -0.17,0.545 -0.091,0.37 0.027,0.221 -0.023,0.144 0.052,0.197 0.113,0.229 0.167,0.248 0.111,0.164 0.056,0.083 0,0 m -5.096,-38.734 0.107,-0.017 -0.044,0.054 c 0.053,0.009 0.106,0.019 0.16,0.038 -0.006,-0.147 -0.012,-0.3 -0.017,-0.448 z m 3.122,35.237 c -0.029,-0.067 -0.063,-0.131 -0.09,-0.199 -0.126,-0.012 -0.225,-0.08 -0.258,-0.256 0.024,-0.197 0.053,-0.25 0.085,-0.247 -0.027,-0.088 -0.054,-0.177 -0.079,-0.267 -0.007,-0.026 -0.014,-0.053 -0.021,-0.079 -0.141,-0.11 -0.261,-0.247 -0.273,-0.544 -0.13,-0.047 -0.297,-0.141 -0.51,-0.177 0.093,0.798 0.499,1.735 1.146,1.769 m -0.61,1.555 1.215,-0.508 c -0.007,-0.029 -0.015,-0.057 -0.028,-0.083 -0.02,-0.025 -0.041,-0.049 -0.06,-0.074 -0.037,-0.023 -0.089,-0.025 -0.162,0.006 0.039,-0.037 0.055,-0.085 0.062,-0.138 -0.142,-0.199 -0.256,-0.413 -0.36,-0.632 -0.585,0.289 -1.112,0.54 -0.667,1.429 m -1.24,-7.101 c 0.067,-0.092 0.021,-0.178 -0.061,-0.272 0.021,0.09 0.04,0.181 0.061,0.272 m -0.342,-5.796 -0.248,-0.212 c 0.003,0.022 0.004,0.043 0.007,0.066 0.059,0.065 0.126,0.106 0.198,0.137 0.015,0.003 0.027,0.004 0.043,0.009 m 1.056,7.898 c -0.104,-0.214 -0.219,-0.426 -0.359,-0.632 l 0.525,0.38 c 0.028,-0.544 0.309,-0.863 0.002,-1.347 -0.437,0.065 -0.246,0.384 -0.195,0.647 -0.46,-0.264 -0.163,-0.388 -0.502,-0.93 -0.069,0.017 -0.1,0.043 -0.118,0.073 0.133,0.565 0.262,1.143 0.377,1.738 0.044,0.017 0.088,0.034 0.12,0.064 -0.043,-0.009 -0.082,-0.029 -0.118,-0.053 0.098,0.508 0.184,1.029 0.237,1.58 l 0.284,-0.249 c -0.173,-0.418 -0.138,-1.043 -0.403,-1.278 0.049,0.012 0.101,0.013 0.15,0.007 m 2.472,5.104 c -0.144,-0.098 -0.272,-0.204 -0.393,-0.313 -0.073,0.186 -0.044,0.356 0.043,0.518 z m 60.926,72.358 c 0.191,0.338 0.713,-0.083 0.531,0.246 -0.507,-0.091 -0.483,0.844 -1.131,0.912 l 0.177,0.26 c -0.116,0.246 -0.13,-0.49 -0.375,-0.073 l 0.37,-0.592 c -0.258,-0.076 -0.455,-0.051 -0.673,0.075 -0.01,-0.361 0.478,-1.178 -0.214,-1.223 l 0.092,0.132 c -0.333,-0.313 -0.503,0.162 -0.65,0.187 l 0.082,0.061 -0.521,0.014 c 0.373,0.016 0.384,0.755 0.214,0.561 -0.546,-0.206 0.218,-0.037 -0.043,-0.367 -0.171,-0.194 -0.356,0.135 -0.486,0.306 L 57.327,70.7 c -0.197,0.255 0.244,0.185 -0.115,0.317 l -0.22,-0.639 c -0.616,0.547 -0.224,-0.708 -0.926,-0.306 0.189,0.422 -0.208,0.182 -0.332,0.425 L 54.99,69.781 c -0.148,0.021 0.038,0.367 -0.053,0.233 -0.295,0.04 -0.108,-0.359 -0.191,-0.424 -0.217,0.11 -0.568,-0.519 -0.906,-0.098 -0.763,-0.201 0.238,-0.707 -0.452,-0.915 -0.284,0.186 0.333,0.405 -0.11,0.462 l -0.422,-0.544 c -0.061,0.159 -0.259,0.482 -0.022,0.6 -1.648,-0.91 -3.558,-0.326 -4.488,-1.811 -0.441,0.118 -0.055,0.308 -0.109,0.612 -0.53,-1.223 -1.841,-0.571 -2.568,-1.333 l 0.21,-0.245 c -1.736,-0.31 -2.59,-1.959 -4.037,-2.85 l 0.299,-0.018 c 0.061,-0.381 -0.173,-0.665 -0.26,-0.959 -0.145,0.084 -0.353,0.622 -0.595,0.187 0.152,-0.009 0.38,0.05 0.45,-0.103 -0.799,-0.209 -1.688,-0.887 -2.6,-1.703 -0.915,-0.813 -1.882,-1.736 -2.815,-2.466 -0.979,-1.249 -2.175,-2.387 -3.331,-3.558 -1.042,-1.036 -2.076,-2.072 -2.945,-3.176 -0.635,0.152 -1.303,0.332 -1.94,0.339 l 1.389,-0.593 c -0.01,-0.333 -0.058,-0.551 -0.126,-0.7 C 29.217,50.642 29.111,50.534 29.025,50.41 28.75,50.327 28.479,50.391 28.591,49.634 28.557,49.589 28.519,49.547 28.478,49.507 L 26.9,50.904 c 0.65,-1.077 -0.747,-1.21 -1.471,-1.152 l 1,-1.311 C 25.18,48.302 24.51,48.082 23.208,48.777 l 1.197,-0.854 c -0.933,0.314 -2.051,-2.832 -3.345,-0.439 0.097,-0.415 0.548,-1.074 0.06,-1.43 l -1.212,0.828 c -0.216,-0.901 -0.566,-1.811 -1.366,-1.511 -0.006,0.578 0.061,-1.445 -0.358,-0.933 -2.367,-2.721 2.881,-0.959 1.133,-3.538 l -0.747,0.59 0.356,-1.235 -1.458,0.029 c 0.989,-1.401 0.3,-2.234 -0.584,-3.062 -0.891,-0.819 -1.994,-1.627 -1.786,-2.89 -0.174,-0.763 -2.344,-0.505 -2.912,-1.824 l 1.283,-0.711 C 12.542,31.719 11.306,30.917 9.882,30.217 8.472,29.508 6.851,28.909 5.107,29.298 5.523,27.783 5.431,29.243 6.419,28.633 6.669,26.031 4.619,27.049 3.302,26.489 3.288,24.982 4.285,27.096 4.898,25.936 2.93,24.724 2.682,23.643 0.662,21.93 -0.182,22.098 0.456,22.763 0.097,23.248 0.576,21.012 -1.706,18.543 -2.562,16.054 -3.11,15.49 -3.661,14.824 -4.221,14.101 -4.5,13.739 -1.787,13.365 -2.067,12.977 -2.34,12.584 -2.617,12.183 -2.898,11.78 -3.458,10.97 -4.035,10.146 -4.634,9.349 -5.214,8.541 -5.806,7.754 -6.439,7.039 L -5.966,6.787 C -6.867,6.338 -7.185,5.628 -7.385,4.84 -7.584,4.05 -7.703,3.203 -8.278,2.478 l 1.015,0.549 C -6.758,1.653 -7.524,1.248 -7.492,0.111 L -9.129,0.008 c 0.137,-1.274 1.086,-0.889 1.601,-1.93 -1.243,-0.725 -1.035,-3.115 -1.204,-3.586 -0.773,-0.15 -0.834,0.681 -1.205,0.965 0.148,-1.472 1.59,-1.755 1.181,-3.386 l -0.411,0.076 c 0.139,-0.556 0.225,-1.111 0.29,-1.674 0.077,-0.567 0.118,-1.136 0.134,-1.708 0.038,-1.146 -0.049,-2.296 -0.121,-3.463 -0.087,-2.346 -0.336,-4.712 0.128,-6.999 0.115,0.287 0.426,0.172 0.745,0.248 0.011,-1.167 -0.065,-2.362 -0.009,-3.578 0.031,-0.657 0.073,-1.316 0.134,-1.971 l -0.059,0.015 c 0.023,-0.006 0.038,-0.016 0.06,-0.022 0.038,-0.408 0.086,-0.813 0.142,-1.215 -0.227,-0.093 0.171,-0.585 -0.564,-0.623 0.665,-0.208 0.104,-0.885 0.672,-1.065 -0.019,-0.371 -0.649,-0.23 -0.88,-0.288 l 0.23,-0.213 c -0.346,-0.133 -0.491,-0.816 -0.77,-1.195 l 0.55,-0.471 -0.294,-0.102 c 0.145,-0.083 0.19,-0.413 0.443,-0.249 l -0.065,-0.2 c 0.659,-0.111 0.141,-0.314 0.365,-0.765 -0.119,-0.08 -0.274,-0.034 -0.349,0.068 -0.035,-0.205 -0.362,-0.071 -0.599,-0.154 0.189,0.121 1.082,-0.895 1.458,-0.383 0.274,0.002 0.427,-0.343 0.28,-0.527 l -0.611,-0.046 0.593,-0.319 c 0.044,-0.323 -0.356,-0.41 -0.459,-0.656 -0.001,0.262 -1.064,0.72 -1.143,0.04 -0.028,0.365 -0.335,0.581 -0.433,0.782 -0.043,-0.138 -0.11,-0.202 -0.332,0.049 0.11,-0.555 0.34,-0.223 0.342,-0.757 -0.528,0.092 -0.719,-0.035 -0.967,-0.477 l 0.439,0.301 c 0.063,-0.024 0.107,-0.053 0.135,-0.083 0.076,0.124 0.164,0.151 0.373,0.155 -0.02,-0.104 0.575,-0.684 0.24,-0.735 0.885,0.434 0.554,-0.991 1.092,-0.708 0.15,-0.076 0.151,-0.444 -0.12,-0.454 -0.366,0.48 -0.636,-0.268 -1.002,-0.16 0.14,-0.179 0.425,0.306 0.608,0.064 0.014,-0.265 -0.332,-0.424 -0.512,-0.555 l -0.091,0.12 -0.274,-0.384 c 0.261,-0.091 0.486,0.35 0.593,-0.036 -0.12,-0.087 -0.013,-0.473 -0.225,-0.443 -0.352,0.211 -0.85,0.125 -0.915,0.454 0.016,-0.27 0.007,-1.121 0.536,-0.822 l -0.044,-0.315 c 0.242,0.181 0.695,0.697 0.715,0.061 l -0.107,0.014 0.368,-0.471 -0.292,-0.168 c 0.136,-0.005 0.255,-0.084 0.232,-0.245 -0.164,-0.03 -0.24,-0.178 -0.454,-0.15 -0.013,-0.474 0.262,-0.455 0.413,-0.527 0.016,-0.265 -0.105,-0.356 -0.41,-0.212 -0.101,-0.356 -0.084,-0.991 -0.388,-1.221 0.201,-0.498 0.121,0.093 0.46,-0.21 -0.974,-0.366 -0.41,-1.589 -0.318,-2.381 0.791,0.179 0.147,-0.188 0.752,-0.366 -0.252,-0.004 -0.597,-0.684 -0.789,-0.053 l 0.075,-0.425 c -0.457,-0.278 -0.32,0.71 -0.948,0.29 0.014,-0.48 0.904,-0.812 0.588,-1.365 -0.575,0.198 0.18,-0.434 -0.453,-0.285 -0.207,0.12 -0.139,0.275 -0.181,0.436 l -0.116,-0.097 c -0.194,-1.046 0.677,-0.314 1.061,-0.864 0.058,-0.633 -0.47,-0.496 -0.744,-0.532 -0.115,-0.098 -0.033,-0.42 0.115,-0.587 -0.345,0.389 0.381,0.716 0.743,0.536 -0.668,-0.277 -0.077,-0.941 0.179,-1.11 0.721,0.901 0.049,0.626 0.821,1.465 -0.206,0.117 -0.8,0.104 -0.542,0.608 0.285,-0.322 0.33,0.018 0.429,0.106 -0.344,-0.093 -0.133,0.353 -0.271,0.509 0.28,0.135 0.78,-0.316 0.932,0.191 l -0.801,0.113 c 0.126,0.197 0.586,-0.098 0.405,0.332 0.413,-0.239 0.652,0.052 0.766,-0.523 0.703,0.665 -0.343,1.054 -0.621,1.6 0.049,-0.057 0.155,-0.066 0.207,-0.122 -0.207,0.121 -0.189,0.328 -0.233,0.487 0.192,0.344 0.356,-0.292 0.579,-0.208 l -0.007,0.568 c 0.027,0.01 0.041,0.012 0.058,0.011 -0.106,0.154 -0.175,0.3 0.026,0.343 0.253,-0.18 0.518,-0.258 0.725,-0.379 l -0.543,0.617 c 0.263,-0.076 0.47,0.467 0.651,0.037 -0.025,0.293 -0.07,0.587 -0.078,0.88 l 0.547,0.043 c -0.078,0.213 -0.184,0.225 -0.271,-0.02 0.149,0.287 -0.835,1.381 0.217,1.154 -0.386,0.713 -0.189,0.948 -0.392,1.799 0.444,-0.677 0.692,0.676 0.866,-0.016 0.269,0.372 -0.309,0.504 -0.372,0.823 0.048,0.051 0.106,0.081 0.169,0.102 0.009,-0.076 0.013,-0.154 0.023,-0.231 0.048,0.145 0.123,0.215 0.214,0.252 0.21,-0.028 0.423,-0.161 0.528,-0.347 -0.015,-0.39 -0.03,-0.787 -0.045,-1.182 -0.058,0.06 -0.11,0.115 -0.152,0.161 0.044,-0.128 0.093,-0.238 0.146,-0.338 -0.007,-0.176 -0.013,-0.348 -0.02,-0.526 -0.028,-0.788 -0.082,-1.58 -0.05,-2.384 0.028,-1.604 0.091,-3.216 0.255,-4.784 0.066,-0.783 0.216,-1.558 0.399,-2.315 0.178,-0.757 0.39,-1.496 0.642,-2.208 0.252,-0.712 0.544,-1.398 0.885,-2.05 0.171,-0.326 0.349,-0.644 0.551,-0.952 0.213,-0.308 0.438,-0.607 0.676,-0.895 -0.15,0.798 -0.047,1.74 0.1,2.747 0.146,1.008 0.345,2.081 0.471,3.154 0.068,0.537 0.098,1.074 0.13,1.603 0.04,0.529 0.045,1.052 0,1.561 -0.09,1.02 -0.38,1.989 -0.999,2.862 0.251,0.237 0.376,0.514 0.442,0.805 0.401,0.076 0.821,0.608 1.212,1.068 l -1.138,0.189 c 0.018,0.662 0.095,1.231 0.878,1.389 0.307,1.132 0.381,2.114 0.328,3.028 -0.027,0.457 -0.085,0.897 -0.162,1.328 -0.067,0.431 -0.136,0.851 -0.221,1.273 -0.321,1.683 -0.76,3.397 -0.37,5.629 0.41,0.579 1.083,0.124 1.833,0.163 l -0.008,-0.9 0.032,-0.906 0.065,-1.804 0.961,2.003 c 0.518,-1.036 -0.348,-3.166 0.971,-3.639 -0.28,0.812 -0.359,1.714 -0.343,2.652 0.009,0.469 0.036,0.948 0.085,1.429 0.07,0.477 0.14,0.959 0.21,1.438 0.299,1.913 0.5,3.796 -0.108,5.327 -0.659,-1.141 -0.558,-2.787 -1.006,-4.217 -0.619,-0.54 -1.189,-1.471 -1.903,-1.261 -0.297,1.163 -0.404,2.252 -0.395,3.297 0.022,1.042 0.105,2.056 0.337,3.033 0.212,0.984 0.47,1.96 0.705,2.972 0.052,0.214 0.1,0.432 0.147,0.651 l 0.063,-0.02 -0.059,0.041 c 0.045,0.211 0.087,0.426 0.128,0.642 0.421,0.182 0.194,0.617 0.79,0.813 l -0.543,0.078 c -0.027,0.046 -0.043,0.09 -0.063,0.134 0.047,0.278 0.094,0.56 0.141,0.844 0.026,0.174 0.062,0.355 0.105,0.536 0.399,0.58 0.983,1.146 0.981,1.861 0.045,0.029 0.091,0.052 0.138,0.071 l 0.264,-0.099 -0.07,0.139 c 0.019,0.001 0.038,0.005 0.057,0.004 0.029,-0.777 0.765,-0.425 0.926,-1.101 -0.064,0.801 -0.624,1.051 -1.095,1.318 l -0.149,0.295 c 0.404,0.167 0.301,-0.273 0.537,-0.255 -0.065,0.608 -0.538,0.415 -0.466,1.079 0.385,0.228 0.261,-0.207 0.368,-0.406 -0.008,0.207 -0.001,0.442 0.02,0.677 l 1.592,-0.72 c -2.315,1.706 1.329,2.486 0.366,4.522 1.152,0.213 1.356,-0.995 1.02,-2.184 0.879,1.181 -0.477,1.785 -0.07,2.841 l 1.697,-1.726 c -1.561,1.811 1.073,1.882 1.951,2.26 -0.467,0.259 -2.242,0.242 -1.585,1.593 0.49,0.501 0.884,0.002 1.225,0.034 -0.47,0.264 -1.189,1.111 -0.884,2.057 0.74,-0.095 0.779,-1.006 1.449,-1.33 0.226,0.703 0.313,1.318 1.063,1.595 -0.089,1.441 -1.003,0.307 -1.444,1.347 1.218,1.683 2.399,-0.754 4.098,-0.649 0.414,-1.774 0.039,-3.659 0.29,-4.597 l 0.468,2.849 c 0.732,-0.471 2.042,1.226 2.274,-0.461 0.858,1.153 1.457,2.563 1.836,4.057 0.201,0.742 0.335,1.511 0.49,2.249 0.152,0.74 0.282,1.466 0.409,2.148 -0.427,-0.222 -0.796,-0.594 -1.25,-0.299 0.132,1.48 1.029,0.894 1.706,0.892 -0.101,1.183 -1.476,1.706 -2.19,2.756 2.043,1.406 1.528,2 3.931,2.834 l -1.361,0.56 c 1.639,0.62 -0.274,1.813 1.16,2.651 0.316,-0.079 0.396,-0.725 0.498,-1.259 0.154,1.313 3.632,0.428 3.693,1.75 l 1,-1.602 c 0.395,0.863 0.605,2.331 1.606,1.236 -0.727,2.271 1.323,4.473 1.504,6.766 l 1.031,-0.758 c -0.794,1.709 0.084,3.34 -1.017,5.103 l 0.523,-0.135 c -0.116,0.91 -0.208,1.813 -0.309,2.726 0.651,0.749 2.091,-0.555 1.684,-0.204 0.839,1.994 1.694,3.447 2.996,4.229 -0.615,0.615 -0.706,1.458 -0.536,2.35 0.181,0.884 0.623,1.816 1.048,2.619 4.568,5.142 3.522,10.154 6.847,16.174 1.443,1.37 4.271,7.593 6.264,9.586 4.027,4.079 8.551,7.069 12.813,8.625 -0.108,0.39 0.091,0.863 -0.322,1.094"
             style="fill:#ed0a00;fill-opacity:1;fill-rule:nonzero;stroke:none"
             id="path1060" />
        </g>
        <g
           id="g1062"
           transform="translate(197.4687,1841.7998)">
          <path
             d="M 0,0 C 0.018,0.032 0.042,0.056 0.075,0.066 0.04,0.041 0.024,0.021 0,0"
             style="fill:#ed0a00;fill-opacity:1;fill-rule:nonzero;stroke:none"
             id="path1064" />
        </g>
        <g
           id="g1066"
           transform="translate(198.2521,1842.9594)">
          <path
             d="M 0,0 C -0.036,-0.088 -0.011,-0.159 0.032,-0.218 0.041,-0.168 0.035,-0.1 0,0"
             style="fill:#ed0a00;fill-opacity:1;fill-rule:nonzero;stroke:none"
             id="path1068" />
        </g>
        <g
           id="g1070"
           transform="translate(198.1866,1843.186)">
          <path
             d="M 0,0 0.082,0.253 C 0.054,0.258 0.033,0.262 -0.001,0.269 Z"
             style="fill:#ed0a00;fill-opacity:1;fill-rule:nonzero;stroke:none"
             id="path1072" />
        </g>
        <g
           id="g1074"
           transform="translate(197.3704,1841.4788)">
          <path
             d="M 0,0 C 0.028,0.1 0.047,0.238 0.098,0.321 -0.036,0.206 -0.053,0.104 0,0"
             style="fill:#ed0a00;fill-opacity:1;fill-rule:nonzero;stroke:none"
             id="path1076" />
        </g>
        <g
           id="g1078"
           transform="translate(197.6132,1844.4286)">
          <path
             d="M 0,0 C 0.007,0.01 0.014,0.022 0.021,0.032 L -0.085,0.126 Z"
             style="fill:#ed0a00;fill-opacity:1;fill-rule:nonzero;stroke:none"
             id="path1080" />
        </g>
        <g
           id="g1082"
           transform="translate(197.0472,1840.3727)">
          <path
             d="M 0,0 C -0.003,0.051 -0.015,0.098 -0.06,0.139 -0.082,0.101 -0.104,0.055 -0.13,-0.003 -0.072,0.005 -0.034,0.004 0,0"
             style="fill:#ed0a00;fill-opacity:1;fill-rule:nonzero;stroke:none"
             id="path1084" />
        </g>
        <g
           id="g1086"
           transform="translate(276.8668,1823.6838)">
          <path
             d="m 0,0 v 0 c 0,0 -0.043,0.07 0.819,1.068 0.862,0.998 0.771,0.726 1.089,1.769 0.317,1.043 0.151,1.27 0.151,1.27 0,0 0.238,0.227 0.346,0.424 0.108,0.196 0.343,0.574 0.301,0.71 -0.042,0.136 -0.103,0.514 -0.072,0.651 0.03,0.136 0.181,0.302 0.257,0.483 0.075,0.182 0.09,0.333 0.136,0.711 0.045,0.378 0.106,1.059 0.181,1.21 0.076,0.151 0.02,0.122 0.212,0.393 0.192,0.271 0.363,0.68 0.363,0.68 0,0 -0.106,-0.695 -0.106,-1.421 C 3.677,7.222 3.327,5.287 3.29,5.196 3.254,5.105 3.148,4.289 3.087,4.092 3.027,3.896 2.823,2.52 2.706,2.399 2.588,2.278 2.422,1.96 2.256,1.673 2.089,1.385 1.832,0.886 1.651,0.705 1.469,0.524 0.668,0.096 0.532,0 0.396,-0.096 0,0 0,0"
             style="fill:#ed0000;fill-opacity:1;fill-rule:nonzero;stroke:none"
             id="path1088" />
        </g>
        <g
           id="g1090"
           transform="translate(280.6207,1831.7281)">
          <path
             d="m 0,0 0.363,0.68 c 0,0 -0.121,0.499 0.013,1.177 0.149,0.757 0.12,1.676 0.365,2.059 0.245,0.384 0.015,1.059 0.015,1.149 0,0.091 0.06,0.968 0.101,1.384 0.041,0.417 0.322,1.323 0.383,1.686 0.06,0.363 -0.121,0.696 0,0.968 0.121,0.272 -0.025,1.098 0,1.367 C 1.265,10.739 0.847,8.74 0.817,8.649 0.786,8.558 0.272,8.498 0.363,7.893 0.454,7.288 0.514,6.744 0.363,5.927 0.212,5.111 0.423,4.929 0.181,4.566 c -0.241,-0.362 -0.362,0 -0.604,-1.3 -0.242,-1.3 0,-1.724 0,-1.724 0,0 0.497,0.484 0.294,-0.514 -0.204,-0.998 -0.506,-1.3 -0.294,-1.361 0.211,-0.06 0.093,-0.715 0.093,-0.715 l 0.39,0.564 z"
             style="fill:#ed0000;fill-opacity:1;fill-rule:nonzero;stroke:none"
             id="path1092" />
        </g>
        <g
           id="g1094"
           transform="translate(281.3588,1840.4709)">
          <path
             d="m 0,0 c 0,0 -0.189,0.023 -0.068,0.484 0.121,0.46 0.01,1.013 -0.04,1.194 -0.051,0.182 -0.177,0.068 0,0.522 0.176,0.454 0.319,0.451 0.343,0.767 0.024,0.316 0.144,0.367 0,0.617 C 0.091,3.833 0.112,3.856 0.102,4.173 0.091,4.491 0.217,4.064 0.305,4.74 0.393,5.417 0.292,5.988 0.305,6.215 0.318,6.442 0.022,6.872 0.102,7.145 0.181,7.417 0.159,7.099 0.341,7.621 0.523,8.143 0.513,7.875 0.532,8.35 0.552,8.826 0.166,9.889 0.166,9.889 c 0,0 0.424,0.068 0.265,0.499 -0.159,0.431 -0.159,0.363 -0.113,0.771 0.045,0.409 0.294,0.272 0.215,0.613 -0.079,0.34 0.193,0.385 0,0.771 -0.193,0.385 -0.397,-0.272 -0.238,0.521 0.159,0.794 0,0.885 0.091,1.361 0.09,0.477 0.022,0.772 -0.091,1.316 -0.114,0.544 -0.238,-0.613 0.136,0.975 0.373,1.588 0.466,2.2 0.153,3.652 -0.312,1.452 -0.215,0.726 -0.297,1.724 -0.083,0.998 0.496,1.134 0.297,1.905 -0.198,0.771 -0.419,0.771 -0.297,1.361 0.121,0.59 0.587,0.363 0.297,1.179 -0.289,0.817 -0.085,1.769 -0.176,2.291 -0.09,0.522 -0.453,0.862 -0.249,1.202 0.204,0.34 0.436,0.388 0.425,0.589 -0.01,0.201 0.2,0.364 0.137,0.613 -0.063,0.25 -0.21,1.222 -0.137,1.337 0.074,0.115 0.087,0.456 0.295,0.473 0.209,0.018 -0.265,-0.387 -0.333,-0.138 -0.068,0.25 -0.264,0.872 0.031,1.281 0.295,0.408 0.67,-1.501 0.444,-2 C 0.794,31.686 0.832,33.034 0.878,32.58 0.923,32.127 1.082,32.757 0.928,32.483 0.775,32.209 1.066,32.48 1.021,32.185 0.975,31.89 1.247,31.777 1.111,31.3 0.975,30.824 0.774,30.66 0.805,30.234 1.013,27.381 0.901,23.882 1.021,22.681 1.299,19.878 1.269,17.082 1.367,15.902 1.464,14.723 1.134,12.815 1.089,11.363 1.043,9.912 0.635,6.374 0.635,6.374 0.635,6.374 0.771,3.629 0.59,2.336 0.408,1.043 0,0 0,0"
             style="fill:#ed0000;fill-opacity:1;fill-rule:nonzero;stroke:none"
             id="path1096" />
        </g>
        <g
           id="g1098"
           transform="translate(282.371,1872.7482)">
          <path
             d="m 0,0 c 0,0 -0.112,-0.59 -0.22,-0.612 -0.109,-0.023 -0.264,-0.294 -0.154,0.453 0.11,0.747 0.023,1.089 -0.091,1.406 -0.113,0.318 -0.396,0.264 -0.305,0.597 0.09,0.333 -0.095,0.215 0.137,0.247 0.21,0.029 0.096,0.008 0.292,0.024 0.222,0.019 0.229,0.106 0.257,-0.151 C -0.056,1.708 0.011,1.417 0,1.287 -0.011,1.157 0,0 0,0"
             style="fill:#ed0000;fill-opacity:1;fill-rule:nonzero;stroke:none"
             id="path1100" />
        </g>
      </g>
    </g>
  </g>
</svg>
